<?xml version="1.0" standalone="no"?>
<!DOCTYPE svg PUBLIC "-//W3C//DTD SVG 20010904//EN"
 "http://www.w3.org/TR/2001/REC-SVG-20010904/DTD/svg10.dtd">
<svg version="1.0" xmlns="http://www.w3.org/2000/svg"
 width="260.000000pt" height="260.000000pt" viewBox="0 0 260.000000 260.000000"
 preserveAspectRatio="xMidYMid meet">
<metadata>
Created by potrace 1.14, written by Peter Selinger 2001-2017
</metadata>
<g transform="translate(0.000000,260.000000) scale(0.100000,-0.100000)"
fill="#000000" stroke="none">
<path d="M1117 2404 c-4 -4 -30 -11 -72 -19 -64 -11 -164 -43 -181 -56 -6 -5
-13 -7 -16 -4 -3 3 -11 -1 -17 -9 -7 -8 -19 -12 -27 -9 -8 3 -14 1 -14 -5 0
-5 -15 -15 -32 -23 -18 -7 -35 -15 -38 -18 -3 -4 -17 -12 -32 -20 -15 -8 -37
-22 -47 -33 -11 -10 -23 -18 -25 -18 -16 0 -226 -206 -226 -221 0 -4 -10 -19
-23 -33 -26 -28 -132 -226 -121 -226 4 0 0 -8 -9 -18 -10 -10 -14 -22 -11 -25
4 -4 2 -13 -4 -20 -7 -8 -9 -17 -5 -20 3 -4 2 -7 -4 -7 -5 0 -10 -6 -10 -12 0
-7 -4 -26 -7 -43 l-7 -30 16 28 c9 15 20 27 25 27 5 0 11 8 14 18 6 18 138
162 149 162 3 0 17 10 31 23 13 12 37 29 53 37 15 8 30 17 33 20 20 20 169 82
180 75 5 -3 10 -1 12 5 1 5 15 11 31 12 15 1 27 5 27 8 0 5 22 8 110 12 30 2
58 8 62 13 5 7 8 7 8 0 0 -6 29 -10 68 -9 37 0 72 -3 77 -7 6 -5 20 -8 30 -8
56 2 239 -70 293 -113 6 -6 12 -7 12 -4 0 4 12 -5 27 -19 15 -14 32 -25 37
-25 5 0 24 -16 41 -35 18 -19 35 -32 39 -28 3 3 6 2 6 -4 0 -6 15 -26 33 -45
48 -53 67 -77 67 -87 0 -5 6 -14 14 -20 27 -22 126 -251 109 -251 -3 0 -1 -6
4 -12 5 -7 11 -31 12 -53 2 -22 7 -41 12 -43 5 -2 4 -12 -1 -23 -6 -10 -7 -19
-2 -19 7 0 8 -129 2 -137 -2 -2 -4 -7 -5 -13 -1 -5 -3 -11 -4 -12 -3 -3 -12
-56 -13 -75 -1 -7 -5 -13 -10 -13 -4 0 -8 -7 -8 -16 0 -24 -46 -97 -82 -132
-10 -9 -18 -22 -18 -29 0 -7 -6 -13 -13 -13 -7 0 -26 -14 -42 -30 -16 -16 -34
-30 -41 -30 -7 0 -18 -8 -23 -17 -6 -10 -11 -14 -11 -10 0 5 -15 0 -34 -11
-31 -18 -78 -33 -116 -37 -9 0 -20 -4 -25 -7 -10 -6 -169 -2 -195 5 -14 4 -27
8 -70 25 -8 3 -18 6 -21 6 -56 9 -222 150 -250 214 -8 18 -18 32 -22 32 -5 0
-5 4 -2 10 3 6 1 10 -5 10 -6 0 -9 4 -5 9 3 5 1 12 -4 15 -8 5 -15 30 -28 96
-3 14 -6 62 -6 107 -1 45 -5 79 -9 77 -4 -3 -8 -12 -8 -20 0 -8 -4 -14 -10
-14 -5 0 -9 -3 -8 -7 1 -5 -8 -28 -19 -53 -12 -25 -24 -62 -28 -83 -4 -20 -11
-39 -15 -42 -4 -2 -6 -27 -5 -54 0 -28 -1 -48 -4 -46 -3 2 -7 -8 -7 -21 -1
-13 2 -24 7 -24 5 0 4 -11 -1 -24 -5 -13 -6 -27 -2 -31 3 -3 8 -20 9 -38 4
-43 7 -60 15 -73 4 -6 9 -22 12 -37 4 -25 59 -136 81 -165 31 -42 142 -152
153 -152 6 0 12 -3 12 -8 0 -4 21 -19 48 -32 26 -14 50 -29 54 -35 4 -5 8 -6
8 -1 0 5 6 4 13 -1 6 -6 39 -19 72 -29 75 -24 342 -27 369 -5 11 10 16 10 16
2 0 -8 5 -9 18 -2 11 6 30 12 43 15 57 12 70 15 82 23 6 4 17 8 22 9 19 4 140
56 145 63 3 3 22 14 42 25 20 10 46 27 57 38 11 10 23 18 26 18 3 -1 27 16 52
37 112 92 213 210 274 323 13 25 29 48 34 52 6 4 6 8 1 8 -5 0 -3 6 3 13 6 8
8 17 4 20 -3 4 -2 7 4 7 6 0 14 11 17 25 3 13 11 37 18 52 14 36 19 54 21 76
1 9 6 17 11 17 5 0 6 3 3 6 -3 4 -2 16 4 27 9 15 8 18 -2 12 -8 -6 -10 -4 -3
6 10 16 14 35 16 66 0 13 4 20 8 18 5 -3 8 51 8 120 0 69 -4 128 -9 131 -5 3
-9 11 -9 17 0 7 4 6 10 -3 7 -12 9 -10 7 7 0 12 -4 20 -8 17 -4 -2 -9 7 -11
21 -3 15 -1 25 6 25 6 0 4 5 -4 10 -8 5 -11 10 -6 10 5 0 3 7 -4 15 -7 8 -10
15 -7 15 3 0 1 15 -4 33 -6 17 -12 41 -14 52 -7 33 -47 126 -78 185 -17 30
-35 65 -41 77 -6 13 -14 23 -18 23 -5 0 -8 5 -8 10 0 6 -8 18 -17 29 -10 10
-29 33 -43 51 -30 40 -100 110 -154 153 -22 18 -47 39 -57 49 -9 9 -26 19 -38
23 -12 3 -21 11 -21 16 0 5 -7 9 -15 9 -8 0 -15 5 -15 11 0 5 -4 8 -9 5 -5 -3
-14 1 -21 9 -7 8 -16 12 -21 9 -5 -3 -9 0 -9 6 0 6 -4 8 -10 5 -5 -3 -10 -1
-10 5 0 6 -4 8 -10 5 -5 -3 -10 -1 -10 6 0 7 -3 9 -7 6 -3 -4 -11 -3 -17 2
-16 13 -165 62 -201 67 -16 2 -41 6 -55 10 -27 8 -366 15 -373 8z"/>
</g>
</svg>
